<?xml version="1.0" encoding="utf-8"?>
<!-- Generator: Adobe Illustrator 27.9.0, SVG Export Plug-In . SVG Version: 6.00 Build 0)  -->
<svg version="1.1" id="圖層_1" xmlns="http://www.w3.org/2000/svg" xmlns:xlink="http://www.w3.org/1999/xlink" x="0px" y="0px"
	 viewBox="0 0 48 48" style="enable-background:new 0 0 48 48;" xml:space="preserve">
<style type="text/css">
	.st0{fill-rule:evenodd;clip-rule:evenodd;fill:#FFFFFF;}
	.st1{fill-rule:evenodd;clip-rule:evenodd;}
</style>
<g>
	<path class="st0" d="M4.1,3.7h34c2.2,0,3.9,1.8,3.9,3.9v34c0,2.2-1.8,3.9-3.9,3.9h-34c-2.2,0-3.9-1.8-3.9-3.9v-34
		C0.2,5.5,2,3.7,4.1,3.7L4.1,3.7z M4.1,7.6v34h34v-34H4.1z"/>
	<rect x="1.7" y="6.2" class="st0" width="38.3" height="36.8"/>
</g>
<path class="st1" d="M4.1,3.7h34c2.2,0,3.9,1.8,3.9,3.9v34c0,2.2-1.8,3.9-3.9,3.9h-34c-2.2,0-3.9-1.8-3.9-3.9v-34
	C0.2,5.5,2,3.7,4.1,3.7L4.1,3.7z M4.1,7.6v34h34v-34H4.1z"/>
</svg>
