<svg width="80" height="64" viewBox="0 0 80 64" fill="none" xmlns="http://www.w3.org/2000/svg">
<path d="M78.172 9.992C80 17.12 80 32 80 32C80 32 80 46.88 78.172 54.008C77.156 57.948 74.184 61.048 70.42 62.096C63.584 64 40 64 40 64C40 64 16.428 64 9.58 62.096C5.8 61.032 2.832 57.936 1.828 54.008C1.19209e-07 46.88 0 32 0 32C0 32 1.19209e-07 17.12 1.828 9.992C2.844 6.052 5.816 2.952 9.58 1.904C16.428 -7.15256e-07 40 0 40 0C40 0 63.584 -7.15256e-07 70.42 1.904C74.2 2.968 77.168 6.064 78.172 9.992V9.992ZM32 46L56 32L32 18V46Z" fill="white"/>
</svg>
